<svg width="464" height="171" viewBox="0 0 464 171" fill="none" xmlns="http://www.w3.org/2000/svg">
<path d="M39.072 39.744C41.12 39.744 42.72 40.32 43.872 41.472C45.088 42.624 45.696 44.224 45.696 46.272C45.696 46.784 45.664 47.328 45.6 47.904C45.536 48.416 45.408 48.864 45.216 49.248C44.384 49.12 43.456 49.024 42.432 48.96C41.408 48.832 40.192 48.768 38.784 48.768C35.904 48.768 33.024 49.024 30.144 49.536C27.264 50.048 24.512 50.464 21.888 50.784C19.008 57.568 16.64 63.936 14.784 69.888C12.928 75.84 11.488 81.728 10.464 87.552C8.28798 87.04 6.36798 86.112 4.70398 84.768C3.03998 83.424 1.47198 81.536 -2.19345e-05 79.104C0.447978 78.08 0.991978 76.864 1.63198 75.456C2.27198 73.984 3.03998 72.16 3.93598 69.984C4.83198 67.744 5.88798 65.056 7.10398 61.92C8.38398 58.72 9.88798 54.912 11.616 50.496C8.92798 49.6 7.16798 48.032 6.33598 45.792C6.65598 45.472 7.55198 45.12 9.02398 44.736C10.496 44.288 12.288 43.808 14.4 43.296C15.36 40.8 16.192 38.592 16.896 36.672C17.6 34.688 18.24 32.832 18.816 31.104C19.392 29.312 19.904 27.584 20.352 25.92C20.864 24.192 21.312 22.368 21.696 20.448H21.216C18.784 20.448 16.8 19.872 15.264 18.72C13.792 17.568 13.056 16.064 13.056 14.208C13.056 13.696 13.12 13.088 13.248 12.384C13.44 11.68 13.664 11.072 13.92 10.56C15.136 10.752 16.32 10.88 17.472 10.944C18.688 11.008 20.256 11.04 22.176 11.04C26.208 11.04 29.984 10.944 33.504 10.752C37.024 10.496 40.192 10.24 43.008 9.984C45.888 9.728 48.352 9.504 50.4 9.312C52.448 9.056 54.016 8.928 55.104 8.928C56.576 8.928 57.888 9.696 59.04 11.232C60.192 12.768 61.088 14.944 61.728 17.76C59.68 17.568 58.016 17.44 56.736 17.376C55.52 17.312 54.432 17.28 53.472 17.28C50.208 17.28 47.2 17.44 44.448 17.76C41.76 18.016 39.2 18.336 36.768 18.72C36.384 19.296 35.936 20.032 35.424 20.928C34.976 21.824 34.368 23.104 33.6 24.768C32.832 26.368 31.84 28.48 30.624 31.104C29.472 33.728 28 37.056 26.208 41.088C28.704 40.704 31.072 40.384 33.312 40.128C35.616 39.872 37.536 39.744 39.072 39.744ZM75.7635 77.664C74.5475 76.64 73.7155 75.36 73.2675 73.824C72.8835 72.288 72.6915 70.976 72.6915 69.888C72.6915 68.544 72.8515 67.392 73.1715 66.432C72.9155 66.432 72.3395 66.944 71.4435 67.968C70.5475 68.992 69.5555 70.208 68.4675 71.616C67.4435 73.024 66.4195 74.4 65.3955 75.744C64.3715 77.088 63.6035 78.08 63.0915 78.72C62.2595 79.616 61.4595 80.32 60.6915 80.832C59.9875 81.344 59.4115 81.632 58.9635 81.696C57.9395 81.632 56.8515 81.408 55.6995 81.024C54.6115 80.704 53.5555 80.224 52.5315 79.584C51.5715 78.944 50.7075 78.176 49.9395 77.28C49.2355 76.384 48.7555 75.36 48.4995 74.208C48.4995 72.416 48.5315 70.944 48.5955 69.792C48.7235 68.64 48.9475 67.392 49.2675 66.048C49.8435 63.616 50.6755 60.864 51.7635 57.792C52.9155 54.72 54.2275 51.712 55.6995 48.768C57.1715 45.76 58.8035 42.976 60.5955 40.416C62.4515 37.792 64.4035 35.744 66.4515 34.272C67.0275 34.272 67.6995 34.336 68.4675 34.464C69.2355 34.528 70.0035 34.688 70.7715 34.944C71.6035 35.2 72.3715 35.52 73.0755 35.904C73.8435 36.224 74.4835 36.672 74.9955 37.248C74.4195 37.888 72.9475 40.032 70.5795 43.68C68.2755 47.328 65.6835 52.576 62.8035 59.424C62.4835 60.128 62.0995 61.152 61.6515 62.496C61.2035 63.84 60.7555 65.248 60.3075 66.72C59.8595 68.192 59.4755 69.632 59.1555 71.04C58.8995 72.448 58.7715 73.568 58.7715 74.4C58.7715 74.912 58.8355 75.296 58.9635 75.552C59.1555 75.808 59.3155 76 59.4435 76.128C60.4035 75.744 61.6195 74.688 63.0915 72.96C64.5635 71.232 66.6115 68.576 69.2355 64.992C69.8755 64.096 70.6115 63.072 71.4435 61.92C72.3395 60.768 73.2355 59.552 74.1315 58.272C75.0275 56.928 75.8595 55.552 76.6275 54.144C77.4595 52.736 78.1315 51.328 78.6435 49.92C78.8995 49.152 79.2195 48.256 79.6035 47.232C80.0515 46.144 80.5635 45.024 81.1395 43.872C81.7795 42.72 82.4835 41.568 83.2515 40.416C84.0835 39.2 85.0435 38.08 86.1315 37.056C86.9635 37.056 87.8595 37.152 88.8195 37.344C89.7795 37.536 90.6755 37.792 91.5075 38.112C92.4035 38.368 93.1715 38.688 93.8115 39.072C94.4515 39.392 94.9315 39.744 95.2515 40.128C94.0995 42.944 92.8195 45.728 91.4115 48.48C90.0035 51.232 88.6915 53.952 87.4755 56.64C86.2595 59.264 85.2355 61.888 84.4035 64.512C83.5715 67.136 83.1555 69.696 83.1555 72.192C83.1555 73.536 83.2515 74.72 83.4435 75.744C83.6995 76.704 83.9555 77.536 84.2115 78.24C84.4675 78.88 84.6915 79.424 84.8835 79.872C85.1395 80.32 85.2675 80.704 85.2675 81.024C85.2675 81.088 85.2035 81.184 85.0755 81.312C85.0115 81.376 84.9475 81.408 84.8835 81.408C84.4355 81.408 83.8595 81.312 83.1555 81.12C82.4515 80.928 81.6515 80.64 80.7555 80.256C79.9235 79.936 79.0595 79.552 78.1635 79.104C77.3315 78.656 76.5315 78.176 75.7635 77.664ZM76.8195 21.696C76.8195 20.736 76.8835 19.744 77.0115 18.72C77.1395 17.632 77.3955 16.672 77.7795 15.84C78.1635 14.944 78.7075 14.208 79.4115 13.632C80.1795 12.992 81.1715 12.64 82.3875 12.576C83.2195 12.704 84.3395 13.184 85.7475 14.016C87.2195 14.784 88.2755 15.712 88.9155 16.8C88.9155 16.8 88.5955 17.312 87.9555 18.336C87.3155 19.36 86.5795 20.512 85.7475 21.792C84.9795 23.008 84.1795 24.192 83.3475 25.344C82.5795 26.432 82.0355 27.104 81.7155 27.36C80.3715 26.784 79.2835 25.984 78.4515 24.96C77.6835 23.936 77.1395 22.848 76.8195 21.696ZM89.3955 23.808C89.3955 22.784 89.4595 21.76 89.5875 20.736C89.7155 19.648 89.9715 18.688 90.3555 17.856C90.7395 16.96 91.2835 16.224 91.9875 15.648C92.6915 15.072 93.6195 14.752 94.7715 14.688C95.1555 14.688 95.6355 14.816 96.2115 15.072C96.8515 15.328 97.4915 15.648 98.1315 16.032C98.7715 16.416 99.3795 16.864 99.9555 17.376C100.531 17.888 101.011 18.4 101.395 18.912C101.395 18.976 101.075 19.52 100.435 20.544C99.8595 21.568 99.1555 22.688 98.3235 23.904C97.4915 25.12 96.6595 26.272 95.8275 27.36C94.9955 28.448 94.3875 29.088 94.0035 29.28C92.7235 28.768 91.6995 28 90.9315 26.976C90.2275 25.952 89.7155 24.896 89.3955 23.808ZM94.785 77.856C95.105 76 95.649 73.568 96.417 70.56C97.249 67.488 98.209 64.256 99.297 60.864C100.385 57.408 101.537 53.952 102.753 50.496C103.969 47.04 105.153 43.936 106.305 41.184C107.137 39.2 107.873 37.664 108.513 36.576C109.153 35.424 109.857 34.464 110.625 33.696C111.521 33.824 112.449 34.048 113.409 34.368C114.369 34.688 115.297 35.072 116.193 35.52C117.089 35.968 117.889 36.448 118.593 36.96C119.297 37.408 119.841 37.856 120.225 38.304C118.497 40.352 116.961 42.688 115.617 45.312C114.337 47.936 113.025 51.296 111.681 55.392C115.137 52.32 118.177 49.376 120.801 46.56C123.489 43.744 125.985 40.608 128.289 37.152C128.673 36.832 129.345 36.672 130.305 36.672C131.201 36.672 132.065 36.832 132.897 37.152C133.729 37.408 134.305 37.792 134.625 38.304C133.473 41.376 132.897 44.416 132.897 47.424C132.897 50.24 133.313 52.352 134.145 53.76C134.081 54.144 133.633 54.88 132.801 55.968C132.033 57.056 131.169 58.08 130.209 59.04C128.481 58.144 126.945 56.928 125.601 55.392C124.257 53.792 123.265 52.064 122.625 50.208C119.617 52.32 117.057 54.4 114.945 56.448C112.833 58.432 111.009 60.672 109.473 63.168C108.001 65.6 106.721 68.416 105.633 71.616C104.609 74.816 103.617 78.624 102.657 83.04C102.081 82.976 101.377 82.752 100.545 82.368C99.777 82.048 98.977 81.632 98.145 81.12C97.377 80.608 96.673 80.064 96.033 79.488C95.393 78.912 94.977 78.368 94.785 77.856ZM170.176 40.032C169.92 44 169.216 47.424 168.064 50.304C166.912 53.12 165.248 55.616 163.072 57.792C160.96 59.904 158.368 61.824 155.296 63.552C152.224 65.28 148.64 66.944 144.544 68.544C144.544 68.928 144.512 69.344 144.448 69.792C144.448 70.176 144.448 70.592 144.448 71.04C144.448 71.872 144.512 72.736 144.64 73.632C144.768 74.528 144.992 75.36 145.312 76.128C145.632 76.896 146.08 77.536 146.656 78.048C147.232 78.496 147.968 78.72 148.864 78.72C150.592 78.72 152.288 78.336 153.952 77.568C155.616 76.8 157.184 75.872 158.656 74.784C160.192 73.632 161.6 72.416 162.88 71.136C164.224 69.792 165.408 68.576 166.432 67.488C167.072 68.064 167.616 68.608 168.064 69.12C165.184 72.96 162.016 76.16 158.56 78.72C155.168 81.216 151.936 82.816 148.864 83.52C144.448 83.008 140.992 81.408 138.496 78.72C136.064 75.968 134.848 72.672 134.848 68.832C134.848 66.208 135.2 63.552 135.904 60.864C136.672 58.112 137.696 55.488 138.976 52.992C140.32 50.432 141.856 48.032 143.584 45.792C145.376 43.552 147.264 41.6 149.248 39.936C151.296 38.272 153.376 36.96 155.488 36C157.664 35.04 159.808 34.56 161.92 34.56C164.864 34.944 167.616 36.768 170.176 40.032ZM163.552 43.2C161.824 43.456 160.032 44.16 158.176 45.312C156.32 46.464 154.56 48 152.896 49.92C151.296 51.84 149.824 54.08 148.48 56.64C147.136 59.2 146.08 61.952 145.312 64.896C150.432 62.336 154.688 59.2 158.08 55.488C161.472 51.712 163.296 47.616 163.552 43.2ZM174.716 73.344C174.716 72.768 174.748 72.064 174.812 71.232C174.94 70.336 175.132 69.184 175.388 67.776C175.644 66.304 175.964 64.544 176.348 62.496C176.796 60.448 177.34 57.984 177.98 55.104C178.108 54.464 178.396 53.44 178.844 52.032C179.292 50.624 179.868 49.152 180.572 47.616C181.34 46.016 182.236 44.48 183.26 43.008C184.348 41.536 185.628 40.448 187.1 39.744C188.188 40 189.628 40.672 191.42 41.76C193.212 42.784 194.748 44.224 196.028 46.08C194.556 47.744 193.308 49.408 192.284 51.072C191.324 52.736 190.428 54.464 189.596 56.256C188.828 58.048 188.092 59.904 187.388 61.824C186.748 63.744 186.012 65.76 185.18 67.872C184.476 69.664 183.836 71.52 183.26 73.44C182.684 75.296 182.364 76.928 182.3 78.336C182.3 79.488 182.268 80.288 182.204 80.736C182.204 81.248 182.044 81.504 181.724 81.504C181.468 81.504 180.956 81.344 180.188 81.024C179.42 80.704 178.62 80.224 177.788 79.584C177.02 78.88 176.316 78.016 175.676 76.992C175.036 75.968 174.716 74.752 174.716 73.344ZM193.052 31.68C193.052 31.296 193.148 30.72 193.34 29.952C193.02 29.632 192.732 29.152 192.476 28.512C192.284 27.872 192.188 27.296 192.188 26.784C192.188 26.208 192.252 25.44 192.38 24.48C192.572 23.456 192.796 22.368 193.052 21.216C193.308 20.064 193.628 18.88 194.012 17.664C194.396 16.384 194.78 15.232 195.164 14.208C195.932 14.208 196.86 14.432 197.948 14.88C199.1 15.264 200.252 15.808 201.404 16.512C202.556 17.152 203.612 17.888 204.572 18.72C205.532 19.488 206.268 20.224 206.78 20.928C206.076 21.632 205.148 22.624 203.996 23.904C202.844 25.12 201.724 26.432 200.636 27.84C199.548 29.184 198.556 30.464 197.66 31.68C196.764 32.896 196.188 33.76 195.932 34.272C195.164 34.144 194.492 33.824 193.916 33.312C193.34 32.736 193.052 32.192 193.052 31.68ZM212.86 33.216C214.524 33.728 216.092 34.88 217.564 36.672C219.036 38.4 220.124 40.32 220.828 42.432C220.124 44.16 219.036 46.24 217.564 48.672C216.092 51.104 214.62 53.6 213.148 56.16C211.676 58.656 210.332 61.056 209.116 63.36C207.964 65.6 207.292 67.456 207.1 68.928C208.124 67.84 209.244 66.592 210.46 65.184C211.74 63.712 212.956 62.272 214.108 60.864C215.324 59.392 216.444 58.08 217.468 56.928C218.492 55.712 219.292 54.816 219.868 54.24C221.084 52.96 222.524 51.488 224.188 49.824C225.852 48.096 227.58 46.496 229.372 45.024C231.228 43.488 233.084 42.208 234.94 41.184C236.796 40.096 238.492 39.552 240.028 39.552C241.692 39.552 243.068 40.128 244.156 41.28C245.308 42.368 246.204 43.52 246.844 44.736C246.844 44.864 246.588 45.056 246.076 45.312C245.628 45.504 244.956 46.112 244.06 47.136C243.164 48.288 242.14 49.888 240.988 51.936C239.9 53.92 238.812 56.096 237.724 58.464C236.7 60.768 235.836 63.136 235.132 65.568C234.428 68 234.076 70.208 234.076 72.192C234.076 73.792 234.268 74.816 234.652 75.264C235.1 75.712 235.708 75.936 236.476 75.936C237.18 75.936 237.916 75.776 238.684 75.456C239.452 75.136 240.06 74.976 240.508 74.976C240.764 75.104 240.956 75.392 241.084 75.84C241.276 76.224 241.372 76.576 241.372 76.896C240.86 77.344 240.252 77.792 239.548 78.24C238.844 78.688 238.108 79.104 237.34 79.488C236.572 79.872 235.804 80.192 235.036 80.448C234.332 80.704 233.692 80.832 233.116 80.832C231.26 80.832 229.724 80.544 228.508 79.968C227.356 79.456 226.428 78.752 225.724 77.856C225.084 76.96 224.636 75.904 224.38 74.688C224.124 73.408 223.996 72.064 223.996 70.656C223.996 69.888 224.06 69.024 224.188 68.064C224.316 67.104 224.572 65.984 224.956 64.704C225.34 63.36 225.884 61.792 226.588 60C227.292 58.144 228.188 55.936 229.276 53.376C229.148 53.376 228.284 53.824 226.684 54.72C225.084 55.616 223.356 56.992 221.5 58.848C218.492 61.728 215.772 64.576 213.34 67.392C210.972 70.208 208.54 73.344 206.044 76.8C204.636 78.784 203.388 80.448 202.3 81.792C201.276 83.2 200.38 84.128 199.612 84.576C198.268 83.808 197.276 82.72 196.636 81.312C195.996 79.968 195.516 78.56 195.196 77.088C195.196 75.872 195.356 74.336 195.676 72.48C196.06 70.624 196.54 68.576 197.116 66.336C197.756 64.032 198.524 61.632 199.42 59.136C200.316 56.64 201.308 54.144 202.396 51.648C204.828 46.016 207.036 41.6 209.02 38.4C211.068 35.2 212.348 33.472 212.86 33.216ZM282.271 40.992C282.911 40.992 283.647 41.12 284.479 41.376C285.375 41.568 286.175 41.856 286.879 42.24C287.583 42.56 288.159 42.912 288.607 43.296C289.119 43.68 289.375 44.032 289.375 44.352C288.095 47.04 286.911 49.76 285.823 52.512C284.735 55.2 283.807 57.792 283.039 60.288C282.271 62.784 281.663 65.12 281.215 67.296C280.831 69.472 280.639 71.36 280.639 72.96C280.639 74.752 280.831 76.256 281.215 77.472C281.599 78.624 282.239 79.456 283.135 79.968C282.367 80.48 281.375 80.896 280.159 81.216C278.943 81.536 277.855 81.696 276.895 81.696C273.439 81.696 271.711 79.328 271.711 74.592C271.711 70.944 272.927 65.952 275.359 59.616C274.079 62.56 272.607 65.344 270.943 67.968C269.279 70.528 267.583 72.8 265.855 74.784C264.127 76.768 262.367 78.4 260.575 79.68C258.847 80.896 257.247 81.632 255.775 81.888C253.407 81.76 251.487 80.64 250.015 78.528C248.543 76.352 247.807 73.6 247.807 70.272C247.807 66.688 248.575 62.912 250.111 58.944C251.647 54.976 253.599 51.296 255.967 47.904C258.399 44.512 261.023 41.696 263.839 39.456C266.655 37.152 269.375 35.936 271.999 35.808C272.639 36 273.343 36.384 274.111 36.96C274.943 37.536 275.711 38.208 276.415 38.976C277.183 39.744 277.823 40.544 278.335 41.376C278.847 42.144 279.135 42.816 279.199 43.392C276.639 43.776 273.983 45.024 271.231 47.136C268.543 49.248 266.079 51.808 263.839 54.816C261.663 57.76 259.871 60.928 258.463 64.32C257.055 67.712 256.351 70.88 256.351 73.824C256.351 75.04 256.799 75.808 257.695 76.128C259.551 75.744 261.695 74.176 264.127 71.424C266.559 68.608 269.503 64.288 272.959 58.464C273.599 57.312 274.303 56.032 275.071 54.624C275.903 53.216 276.735 51.744 277.567 50.208C278.399 48.672 279.199 47.136 279.967 45.6C280.799 44 281.567 42.464 282.271 40.992ZM309.797 33.216C311.461 33.728 313.029 34.88 314.501 36.672C315.973 38.4 317.061 40.32 317.765 42.432C317.061 44.16 315.973 46.24 314.501 48.672C313.029 51.104 311.557 53.6 310.085 56.16C308.613 58.656 307.269 61.056 306.053 63.36C304.901 65.6 304.229 67.456 304.037 68.928C305.061 67.84 306.181 66.592 307.397 65.184C308.677 63.712 309.893 62.272 311.045 60.864C312.261 59.392 313.381 58.08 314.405 56.928C315.429 55.712 316.229 54.816 316.805 54.24C318.021 52.96 319.461 51.488 321.125 49.824C322.789 48.096 324.517 46.496 326.309 45.024C328.165 43.488 330.021 42.208 331.877 41.184C333.733 40.096 335.429 39.552 336.965 39.552C338.629 39.552 340.005 40.128 341.093 41.28C342.245 42.368 343.141 43.52 343.781 44.736C343.781 44.864 343.525 45.056 343.013 45.312C342.565 45.504 341.893 46.112 340.997 47.136C340.101 48.288 339.077 49.888 337.925 51.936C336.837 53.92 335.749 56.096 334.661 58.464C333.637 60.768 332.773 63.136 332.069 65.568C331.365 68 331.013 70.208 331.013 72.192C331.013 73.792 331.205 74.816 331.589 75.264C332.037 75.712 332.645 75.936 333.413 75.936C334.117 75.936 334.853 75.776 335.621 75.456C336.389 75.136 336.997 74.976 337.445 74.976C337.701 75.104 337.893 75.392 338.021 75.84C338.213 76.224 338.309 76.576 338.309 76.896C337.797 77.344 337.189 77.792 336.485 78.24C335.781 78.688 335.045 79.104 334.277 79.488C333.509 79.872 332.741 80.192 331.973 80.448C331.269 80.704 330.629 80.832 330.053 80.832C328.197 80.832 326.661 80.544 325.445 79.968C324.293 79.456 323.365 78.752 322.661 77.856C322.021 76.96 321.573 75.904 321.317 74.688C321.061 73.408 320.933 72.064 320.933 70.656C320.933 69.888 320.997 69.024 321.125 68.064C321.253 67.104 321.509 65.984 321.893 64.704C322.277 63.36 322.821 61.792 323.525 60C324.229 58.144 325.125 55.936 326.213 53.376C326.085 53.376 325.221 53.824 323.621 54.72C322.021 55.616 320.293 56.992 318.437 58.848C315.429 61.728 312.709 64.576 310.277 67.392C307.909 70.208 305.477 73.344 302.981 76.8C301.573 78.784 300.325 80.448 299.237 81.792C298.213 83.2 297.317 84.128 296.549 84.576C295.205 83.808 294.213 82.72 293.573 81.312C292.933 79.968 292.453 78.56 292.133 77.088C292.133 75.872 292.293 74.336 292.613 72.48C292.997 70.624 293.477 68.576 294.053 66.336C294.693 64.032 295.461 61.632 296.357 59.136C297.253 56.64 298.245 54.144 299.333 51.648C301.765 46.016 303.973 41.6 305.957 38.4C308.005 35.2 309.285 33.472 309.797 33.216ZM367.017 34.944C368.297 34.944 369.769 35.328 371.433 36.096C373.097 36.864 374.569 37.856 375.849 39.072C375.529 36.512 375.113 34.112 374.601 31.872C374.153 29.568 373.449 27.2 372.489 24.768C371.593 22.336 370.377 19.68 368.841 16.8C367.305 13.92 365.385 10.624 363.081 6.91199C363.273 6.336 363.689 5.664 364.329 4.896C365.033 4.128 365.801 3.424 366.633 2.784C367.529 2.08 368.425 1.472 369.321 0.959997C370.281 0.447996 371.177 0.127996 372.009 -1.90735e-06C373.801 1.984 375.497 4.48 377.097 7.488C378.697 10.432 380.105 13.632 381.321 17.088C382.537 20.48 383.465 24 384.105 27.648C384.809 31.296 385.161 34.784 385.161 38.112C385.161 41.44 384.777 44.864 384.009 48.384C383.305 51.904 382.281 55.36 380.937 58.752C379.657 62.08 378.153 65.248 376.425 68.256C374.697 71.264 372.809 73.952 370.761 76.32C368.777 78.688 366.697 80.608 364.521 82.08C362.345 83.616 360.169 84.576 357.993 84.96C353.577 84.448 350.185 83.008 347.817 80.64C345.513 78.336 344.361 75.136 344.361 71.04C344.361 68.864 344.681 66.496 345.321 63.936C346.025 61.376 346.921 58.848 348.009 56.352C349.161 53.792 350.473 51.328 351.945 48.96C353.481 46.528 355.081 44.352 356.745 42.432C358.473 40.512 360.201 38.88 361.929 37.536C363.657 36.192 365.353 35.328 367.017 34.944ZM357.225 81.12C359.465 80.352 361.705 78.656 363.945 76.032C366.185 73.408 368.201 70.336 369.993 66.816C371.785 63.232 373.225 59.424 374.313 55.392C375.465 51.296 376.041 47.36 376.041 43.584C376.041 42.496 376.041 41.824 376.041 41.568C376.041 41.312 376.009 41.056 375.945 40.8C374.409 41.44 372.777 42.528 371.049 44.064C369.321 45.6 367.593 47.392 365.865 49.44C364.137 51.424 362.505 53.6 360.969 55.968C359.433 58.336 358.057 60.704 356.841 63.072C355.625 65.44 354.665 67.712 353.961 69.888C353.257 72.064 352.905 73.984 352.905 75.648C352.905 78.848 354.345 80.672 357.225 81.12ZM421.988 40.032C421.732 44 421.028 47.424 419.876 50.304C418.724 53.12 417.06 55.616 414.884 57.792C412.772 59.904 410.18 61.824 407.108 63.552C404.036 65.28 400.452 66.944 396.356 68.544C396.356 68.928 396.324 69.344 396.26 69.792C396.26 70.176 396.26 70.592 396.26 71.04C396.26 71.872 396.324 72.736 396.452 73.632C396.58 74.528 396.804 75.36 397.124 76.128C397.444 76.896 397.892 77.536 398.468 78.048C399.044 78.496 399.78 78.72 400.676 78.72C402.404 78.72 404.1 78.336 405.764 77.568C407.428 76.8 408.996 75.872 410.468 74.784C412.004 73.632 413.412 72.416 414.692 71.136C416.036 69.792 417.22 68.576 418.244 67.488C418.884 68.064 419.428 68.608 419.876 69.12C416.996 72.96 413.828 76.16 410.372 78.72C406.98 81.216 403.748 82.816 400.676 83.52C396.26 83.008 392.804 81.408 390.308 78.72C387.876 75.968 386.66 72.672 386.66 68.832C386.66 66.208 387.012 63.552 387.716 60.864C388.484 58.112 389.508 55.488 390.788 52.992C392.132 50.432 393.668 48.032 395.396 45.792C397.188 43.552 399.076 41.6 401.06 39.936C403.108 38.272 405.188 36.96 407.3 36C409.476 35.04 411.62 34.56 413.732 34.56C416.676 34.944 419.428 36.768 421.988 40.032ZM415.364 43.2C413.636 43.456 411.844 44.16 409.988 45.312C408.132 46.464 406.372 48 404.708 49.92C403.108 51.84 401.636 54.08 400.292 56.64C398.948 59.2 397.892 61.952 397.124 64.896C402.244 62.336 406.5 59.2 409.892 55.488C413.284 51.712 415.108 47.616 415.364 43.2ZM424.129 77.856C424.449 76 424.993 73.568 425.761 70.56C426.593 67.488 427.553 64.256 428.641 60.864C429.729 57.408 430.881 53.952 432.097 50.496C433.313 47.04 434.497 43.936 435.649 41.184C436.481 39.2 437.217 37.664 437.857 36.576C438.497 35.424 439.201 34.464 439.969 33.696C440.865 33.824 441.793 34.048 442.753 34.368C443.713 34.688 444.641 35.072 445.537 35.52C446.433 35.968 447.233 36.448 447.937 36.96C448.641 37.408 449.185 37.856 449.569 38.304C447.841 40.352 446.305 42.688 444.961 45.312C443.681 47.936 442.369 51.296 441.025 55.392C444.481 52.32 447.521 49.376 450.145 46.56C452.833 43.744 455.329 40.608 457.633 37.152C458.017 36.832 458.689 36.672 459.649 36.672C460.545 36.672 461.409 36.832 462.241 37.152C463.073 37.408 463.649 37.792 463.969 38.304C462.817 41.376 462.241 44.416 462.241 47.424C462.241 50.24 462.657 52.352 463.489 53.76C463.425 54.144 462.977 54.88 462.145 55.968C461.377 57.056 460.513 58.08 459.553 59.04C457.825 58.144 456.289 56.928 454.945 55.392C453.601 53.792 452.609 52.064 451.969 50.208C448.961 52.32 446.401 54.4 444.289 56.448C442.177 58.432 440.353 60.672 438.817 63.168C437.345 65.6 436.065 68.416 434.977 71.616C433.953 74.816 432.961 78.624 432.001 83.04C431.425 82.976 430.721 82.752 429.889 82.368C429.121 82.048 428.321 81.632 427.489 81.12C426.721 80.608 426.017 80.064 425.377 79.488C424.737 78.912 424.321 78.368 424.129 77.856ZM107.178 154.776V114.584H131.626V118.872H112.17V132.248H130.282V136.536H112.17V154.776H107.178ZM140.741 154.776V124.12H145.733V154.776H140.741ZM144.197 140.952C144.197 137.069 144.57 133.848 145.317 131.288C146.064 128.707 147.152 126.787 148.581 125.528C150.032 124.248 151.792 123.608 153.861 123.608C154.544 123.608 155.162 123.661 155.717 123.768C156.293 123.853 156.869 123.992 157.445 124.184L157.125 129.112C156.528 128.92 155.877 128.76 155.173 128.632C154.469 128.483 153.84 128.408 153.285 128.408C151.472 128.408 150.01 128.931 148.901 129.976C147.792 131 146.981 132.451 146.469 134.328C145.978 136.205 145.733 138.413 145.733 140.952H144.197ZM174.49 155.544C171.845 155.544 169.477 154.872 167.386 153.528C165.317 152.163 163.674 150.275 162.458 147.864C161.263 145.453 160.666 142.68 160.666 139.544C160.666 136.195 161.263 133.315 162.458 130.904C163.653 128.493 165.285 126.648 167.354 125.368C169.445 124.067 171.823 123.416 174.49 123.416C176.815 123.416 178.799 123.885 180.442 124.824C182.085 125.763 183.407 127.032 184.41 128.632C185.413 130.232 186.106 132.045 186.49 134.072C186.895 136.077 187.013 138.157 186.842 140.312H164.698V137.24H183.546L182.074 138.2C182.138 136.941 182.063 135.683 181.85 134.424C181.658 133.165 181.285 132.013 180.73 130.968C180.175 129.901 179.397 129.048 178.394 128.408C177.391 127.768 176.111 127.448 174.554 127.448C172.591 127.448 170.949 127.949 169.626 128.952C168.303 129.955 167.311 131.277 166.65 132.92C165.989 134.541 165.658 136.301 165.658 138.2V140.248C165.658 142.381 165.978 144.291 166.618 145.976C167.279 147.661 168.261 148.995 169.562 149.976C170.863 150.957 172.506 151.448 174.49 151.448C176.474 151.448 178.106 150.968 179.386 150.008C180.666 149.048 181.445 147.629 181.722 145.752H186.906C186.586 147.779 185.861 149.528 184.73 151C183.599 152.451 182.159 153.571 180.41 154.36C178.661 155.149 176.687 155.544 174.49 155.544ZM199.557 116.952C198.533 116.952 197.722 116.664 197.125 116.088C196.528 115.491 196.229 114.712 196.229 113.752C196.229 112.813 196.528 112.067 197.125 111.512C197.722 110.957 198.533 110.68 199.557 110.68C200.581 110.68 201.392 110.957 201.989 111.512C202.586 112.067 202.885 112.813 202.885 113.752C202.885 114.712 202.586 115.491 201.989 116.088C201.392 116.664 200.581 116.952 199.557 116.952ZM197.061 154.776V124.12H202.053V154.776H197.061ZM229.819 155.544C227.771 155.544 225.915 155.011 224.251 153.944C222.609 152.877 221.297 151.32 220.315 149.272C219.355 147.203 218.875 144.685 218.875 141.72H220.795C220.795 143.704 221.201 145.4 222.011 146.808C222.843 148.195 223.91 149.251 225.211 149.976C226.513 150.701 227.878 151.064 229.307 151.064C230.95 151.064 232.454 150.595 233.819 149.656C235.185 148.717 236.273 147.373 237.083 145.624C237.915 143.875 238.331 141.784 238.331 139.352C238.331 136.963 237.926 134.915 237.115 133.208C236.305 131.48 235.206 130.157 233.819 129.24C232.454 128.301 230.929 127.832 229.243 127.832C227.793 127.832 226.417 128.195 225.115 128.92C223.835 129.624 222.79 130.669 221.979 132.056C221.19 133.443 220.795 135.149 220.795 137.176H218.875C218.875 134.275 219.345 131.8 220.283 129.752C221.243 127.704 222.566 126.136 224.251 125.048C225.937 123.96 227.899 123.416 230.139 123.416C232.55 123.416 234.758 124.067 236.763 125.368C238.79 126.648 240.411 128.483 241.627 130.872C242.843 133.261 243.451 136.088 243.451 139.352C243.451 142.637 242.833 145.496 241.595 147.928C240.358 150.339 238.705 152.216 236.635 153.56C234.566 154.883 232.294 155.544 229.819 155.544ZM215.803 154.776V111.128H220.795V147.608L219.323 154.776H215.803ZM274.541 124.12H279.533V154.776H274.541V124.12ZM252.845 124.12H257.837V143.192C257.837 145.752 258.456 147.693 259.693 149.016C260.952 150.339 262.744 151 265.069 151C266.989 151 268.653 150.488 270.061 149.464C271.49 148.44 272.589 147.032 273.357 145.24C274.146 143.427 274.541 141.357 274.541 139.032H276.397C276.397 142.467 275.896 145.4 274.893 147.832C273.912 150.264 272.514 152.131 270.701 153.432C268.909 154.712 266.797 155.352 264.365 155.352C262.061 155.352 260.045 154.925 258.317 154.072C256.589 153.219 255.245 151.928 254.285 150.2C253.325 148.451 252.845 146.243 252.845 143.576V124.12ZM292.491 154.776V124.12H297.483V154.776H292.491ZM295.947 140.952C295.947 137.069 296.32 133.848 297.067 131.288C297.814 128.707 298.902 126.787 300.331 125.528C301.782 124.248 303.542 123.608 305.611 123.608C306.294 123.608 306.912 123.661 307.467 123.768C308.043 123.853 308.619 123.992 309.195 124.184L308.875 129.112C308.278 128.92 307.627 128.76 306.923 128.632C306.219 128.483 305.59 128.408 305.035 128.408C303.222 128.408 301.76 128.931 300.651 129.976C299.542 131 298.731 132.451 298.219 134.328C297.728 136.205 297.483 138.413 297.483 140.952H295.947ZM325.432 170.52C322.296 170.52 319.576 170.072 317.272 169.176C314.968 168.301 313.176 167.117 311.896 165.624C310.637 164.152 310.008 162.52 310.008 160.728C310.008 158.36 310.872 156.547 312.6 155.288C314.349 154.051 316.6 153.432 319.352 153.432L322.104 155.16C319.8 155.16 318.019 155.64 316.76 156.6C315.501 157.56 314.872 158.872 314.872 160.536C314.872 162.2 315.768 163.608 317.56 164.76C319.352 165.912 321.976 166.488 325.432 166.488C327.992 166.488 330.232 166.115 332.152 165.368C334.093 164.643 335.597 163.683 336.664 162.488C337.752 161.315 338.296 160.045 338.296 158.68C338.296 157.72 337.944 156.888 337.24 156.184C336.536 155.501 335.459 155.16 334.008 155.16H322.104C320.035 155.16 318.243 154.851 316.728 154.232C315.235 153.592 314.083 152.76 313.272 151.736C312.461 150.712 312.056 149.592 312.056 148.376C312.056 147.096 312.419 146.008 313.144 145.112C313.869 144.216 314.808 143.533 315.96 143.064C317.133 142.595 318.392 142.36 319.736 142.36L320.696 144.216C320.056 144.216 319.405 144.365 318.744 144.664C318.104 144.941 317.56 145.368 317.112 145.944C316.685 146.499 316.472 147.203 316.472 148.056C316.472 149.037 316.877 149.859 317.688 150.52C318.499 151.181 319.971 151.512 322.104 151.512H334.008C336.888 151.512 339.149 152.12 340.792 153.336C342.456 154.552 343.288 156.248 343.288 158.424C343.288 160.429 342.573 162.349 341.144 164.184C339.715 166.04 337.667 167.555 335 168.728C332.333 169.923 329.144 170.52 325.432 170.52ZM326.328 145.816C323.981 145.816 321.859 145.347 319.96 144.408C318.083 143.469 316.589 142.157 315.48 140.472C314.392 138.787 313.848 136.835 313.848 134.616C313.848 132.376 314.392 130.413 315.48 128.728C316.589 127.043 318.083 125.741 319.96 124.824C321.859 123.885 323.981 123.416 326.328 123.416C328.611 123.416 330.68 123.885 332.536 124.824C334.413 125.741 335.907 127.043 337.016 128.728C338.125 130.413 338.68 132.376 338.68 134.616C338.68 136.835 338.125 138.787 337.016 140.472C335.907 142.157 334.413 143.469 332.536 144.408C330.68 145.347 328.611 145.816 326.328 145.816ZM326.328 142.232C328.675 142.232 330.499 141.507 331.8 140.056C333.101 138.605 333.752 136.792 333.752 134.616C333.752 132.376 333.101 130.563 331.8 129.176C330.499 127.768 328.675 127.064 326.328 127.064C324.003 127.064 322.168 127.768 320.824 129.176C319.501 130.563 318.84 132.376 318.84 134.616C318.84 136.792 319.501 138.605 320.824 140.056C322.168 141.507 324.003 142.232 326.328 142.232ZM336.376 128.28L334.008 127.32C334.008 125.528 334.36 123.96 335.064 122.616C335.768 121.251 336.771 120.195 338.072 119.448C339.373 118.68 340.92 118.296 342.712 118.296L342.328 123.224C340.408 123.224 338.936 123.64 337.912 124.472C336.888 125.283 336.376 126.552 336.376 128.28Z" fill="black"/>
</svg>
