<?xml version="1.0" encoding="UTF-8"?><svg id="a" xmlns="http://www.w3.org/2000/svg" viewBox="0 0 140.09 54.44"><defs><style>.b{fill:#005caa;}.c{fill:#cc1216;}.d{fill:#4996d1;}</style></defs><g><path class="d" d="M0,.66H3.27v.66H.78V3.35H3.07v.66H.78v2.76H0V.66Z"/><path class="d" d="M4.12,3.74c0-.51,0-.97-.04-1.36h.7l.04,.86h.04c.19-.58,.66-.97,1.21-.97,.08,0,.16,0,.23,.04v.78c-.08,0-.16-.04-.27-.04-.54,0-.97,.43-1.05,1.01,0,.12-.04,.23-.04,.39v2.33h-.78V3.74h-.04Z"/><path class="d" d="M7.43,4.71c0,1.09,.7,1.52,1.48,1.52,.58,0,.9-.12,1.21-.23l.12,.58c-.27,.12-.74,.27-1.44,.27-1.36,0-2.14-.9-2.14-2.22s.78-2.33,2.06-2.33c1.44,0,1.79,1.25,1.79,2.06,0,.16,0,.27-.04,.39h-3.04v-.04Zm2.33-.54c0-.51-.19-1.28-1.09-1.28-.82,0-1.17,.74-1.21,1.28h2.3Z"/><path class="d" d="M12.41,1.17c0,.27-.19,.51-.51,.51-.27,0-.47-.23-.47-.51s.19-.51,.51-.51c.27,0,.47,.23,.47,.51Zm-.9,5.6V2.37h.78V6.73h-.78v.04Z"/><path class="d" d="M13.58,6.77c0-.31,.04-.74,.04-1.13V.35h.78V3.07h0c.27-.51,.78-.82,1.48-.82,1.09,0,1.87,.9,1.83,2.22,0,1.56-.97,2.33-1.95,2.33-.62,0-1.13-.23-1.48-.82h-.04l-.04,.74h-.62v.04Zm.82-1.75c0,.12,0,.19,.04,.27,.16,.54,.62,.93,1.21,.93,.82,0,1.32-.66,1.32-1.67,0-.86-.47-1.63-1.28-1.63-.54,0-1.05,.39-1.21,.97,0,.08-.04,.19-.04,.31v.82h-.04Z"/><path class="d" d="M22.41,5.56c0,.47,0,.86,.04,1.21h-.7l-.04-.7h0c-.19,.35-.66,.82-1.44,.82-.7,0-1.52-.39-1.52-1.91V2.41h.78v2.41c0,.82,.23,1.4,.97,1.4,.54,0,.9-.39,1.05-.74,.04-.12,.08-.27,.08-.39V2.41h.78v3.15Z"/><path class="d" d="M23.74,3.74c0-.51,0-.97-.04-1.36h.7l.04,.86h.04c.19-.58,.66-.97,1.21-.97,.08,0,.16,0,.23,.04v.78c-.08,0-.16-.04-.27-.04-.54,0-.97,.43-1.05,1.01,0,.12-.04,.23-.04,.39v2.33h-.78V3.74h-.04Z"/><path class="d" d="M30.39,2.37c0,.31-.04,.66-.04,1.21v2.53c0,1.01-.19,1.6-.62,1.98s-1.05,.51-1.6,.51c-.51,0-1.09-.12-1.44-.35l.19-.62c.27,.19,.74,.35,1.28,.35,.82,0,1.4-.43,1.4-1.52v-.51h0c-.23,.39-.7,.74-1.4,.74-1.09,0-1.87-.93-1.87-2.14,0-1.48,.97-2.33,1.98-2.33,.74,0,1.17,.39,1.36,.74h0l.04-.66h.7v.08Zm-.86,1.75c0-.12,0-.23-.04-.35-.16-.47-.54-.86-1.13-.86-.74,0-1.28,.62-1.28,1.63,0,.86,.43,1.56,1.28,1.56,.51,0,.93-.31,1.09-.82,.04-.12,.08-.27,.08-.43v-.74Z"/><path class="d" d="M34.28,0V9.03h-.62V0h.62Z"/><path class="d" d="M37.67,.74c.35-.08,.9-.12,1.44-.12,.78,0,1.28,.12,1.67,.43,.31,.23,.51,.58,.51,1.09,0,.58-.39,1.09-1.01,1.32h0c.58,.16,1.25,.62,1.25,1.52,0,.51-.19,.93-.51,1.21-.43,.39-1.13,.58-2.1,.58-.54,0-.97-.04-1.21-.08V.74h-.04Zm.78,2.49h.7c.82,0,1.32-.43,1.32-1.01,0-.7-.54-.97-1.32-.97-.35,0-.58,.04-.7,.04v1.95Zm0,2.92c.16,.04,.39,.04,.66,.04,.82,0,1.56-.31,1.56-1.17s-.7-1.17-1.56-1.17h-.66v2.3Z"/><path class="d" d="M42.53,3.74c0-.51,0-.97-.04-1.36h.7l.04,.86h.04c.19-.58,.66-.97,1.21-.97,.08,0,.16,0,.23,.04v.78c-.08,0-.16-.04-.27-.04-.54,0-.97,.43-1.05,1.01,0,.12-.04,.23-.04,.39v2.33h-.78V3.74h-.04Z"/><path class="d" d="M45.84,4.71c0,1.09,.7,1.52,1.48,1.52,.58,0,.9-.12,1.21-.23l.12,.58c-.27,.12-.74,.27-1.44,.27-1.36,0-2.14-.9-2.14-2.22s.78-2.33,2.06-2.33c1.44,0,1.79,1.25,1.79,2.06,0,.16,0,.27-.04,.39h-3.04v-.04Zm2.33-.54c0-.51-.19-1.28-1.09-1.28-.82,0-1.17,.74-1.21,1.28h2.3Z"/><path class="d" d="M50.78,1.17c0,.27-.19,.51-.51,.51-.27,0-.47-.23-.47-.51s.19-.51,.51-.51,.47,.23,.47,.51Zm-.86,5.6V2.37h.78V6.73h-.78v.04Z"/><path class="d" d="M51.91,5.95c.23,.16,.66,.31,1.05,.31,.58,0,.86-.27,.86-.66s-.23-.58-.82-.82c-.78-.27-1.17-.7-1.17-1.25,0-.7,.58-1.28,1.52-1.28,.43,0,.82,.12,1.09,.27l-.19,.58c-.16-.12-.51-.23-.9-.23-.47,0-.74,.27-.74,.58,0,.35,.27,.51,.82,.74,.74,.27,1.13,.66,1.13,1.32,0,.78-.58,1.32-1.63,1.32-.47,0-.93-.12-1.25-.31l.23-.58Z"/><path class="d" d="M59.34,2.37c0,.31-.04,.66-.04,1.21v2.53c0,1.01-.19,1.6-.62,1.98s-1.05,.51-1.6,.51c-.51,0-1.09-.12-1.44-.35l.19-.62c.27,.19,.74,.35,1.28,.35,.82,0,1.4-.43,1.4-1.52v-.51h0c-.23,.39-.7,.74-1.4,.74-1.09,0-1.87-.93-1.87-2.14,0-1.48,.97-2.33,1.98-2.33,.74,0,1.17,.39,1.36,.74h0l.04-.66h.7v.08Zm-.82,1.75c0-.12,0-.23-.04-.35-.16-.47-.54-.86-1.13-.86-.74,0-1.28,.62-1.28,1.63,0,.86,.43,1.56,1.28,1.56,.51,0,.93-.31,1.09-.82,.04-.12,.08-.27,.08-.43v-.74Z"/><path class="d" d="M63.08,6.77l-.08-.54h-.04c-.23,.35-.7,.66-1.32,.66-.9,0-1.32-.62-1.32-1.25,0-1.05,.93-1.63,2.61-1.63v-.08c0-.35-.12-1.01-.97-1.01-.39,0-.82,.12-1.13,.31l-.19-.51c.35-.23,.9-.39,1.44-.39,1.32,0,1.67,.9,1.67,1.79v1.63c0,.39,0,.74,.08,1.05h-.74v-.04Zm-.16-2.26c-.86,0-1.87,.12-1.87,.97,0,.51,.35,.74,.74,.74,.58,0,.93-.35,1.05-.74,.04-.08,.04-.16,.04-.23v-.74h.04Z"/><path class="d" d="M68.64,5.56c0,.47,0,.86,.04,1.21h-.7l-.04-.7h0c-.19,.35-.66,.82-1.44,.82-.7,0-1.52-.39-1.52-1.91V2.41h.78v2.41c0,.82,.23,1.4,.97,1.4,.54,0,.9-.39,1.05-.74,.04-.12,.08-.27,.08-.39V2.41h.78v3.15Z"/><path class="d" d="M71.8,4.01v.58h-2.22v-.58h2.22Z"/><path class="d" d="M73.55,.66V3.19h2.96V.66h.78V6.73h-.78V3.89h-2.96v2.84h-.78V.66h.78Z"/><path class="d" d="M82.58,4.55c0,1.6-1.13,2.33-2.18,2.33-1.17,0-2.1-.86-2.1-2.26,0-1.48,.97-2.33,2.18-2.33,1.25,0,2.1,.9,2.1,2.26Zm-3.46,.04c0,.97,.54,1.67,1.32,1.67s1.32-.7,1.32-1.71c0-.74-.35-1.67-1.32-1.67-.93,0-1.32,.86-1.32,1.71Z"/><path class="d" d="M86.7,6.58c-.19,.12-.66,.23-1.25,.23-1.32,0-2.18-.9-2.18-2.22s.93-2.33,2.33-2.33c.47,0,.9,.12,1.09,.23l-.19,.62c-.19-.12-.51-.19-.93-.19-1.01,0-1.56,.74-1.56,1.63,0,1.01,.66,1.63,1.52,1.63,.47,0,.74-.12,.97-.23l.19,.62Z"/><path class="d" d="M87.63,.35h.78V3.07h0c.12-.23,.31-.43,.58-.54,.23-.12,.51-.23,.82-.23,.58,0,1.52,.35,1.52,1.87v2.61h-.78v-2.53c0-.7-.27-1.28-1.01-1.28-.51,0-.93,.35-1.05,.78-.04,.12-.04,.23-.04,.39v2.65h-.78V.35h-.04Z"/><path class="d" d="M92.5,5.95c.23,.16,.66,.31,1.05,.31,.58,0,.86-.27,.86-.66s-.23-.58-.82-.82c-.78-.27-1.17-.7-1.17-1.25,0-.7,.58-1.28,1.52-1.28,.43,0,.82,.12,1.09,.27l-.19,.58c-.16-.12-.51-.23-.9-.23-.47,0-.74,.27-.74,.58,0,.35,.27,.51,.82,.74,.74,.27,1.13,.66,1.13,1.32,0,.78-.58,1.32-1.63,1.32-.47,0-.93-.12-1.25-.31l.23-.58Z"/><path class="d" d="M99.31,6.58c-.19,.12-.66,.23-1.25,.23-1.32,0-2.18-.9-2.18-2.22s.93-2.33,2.33-2.33c.47,0,.9,.12,1.09,.23l-.19,.62c-.19-.12-.51-.19-.93-.19-1.01,0-1.56,.74-1.56,1.63,0,1.01,.66,1.63,1.52,1.63,.47,0,.74-.12,.97-.23l.19,.62Z"/><path class="d" d="M100.24,.35h.78V3.07h0c.12-.23,.31-.43,.58-.54,.23-.12,.51-.23,.82-.23,.58,0,1.52,.35,1.52,1.87v2.61h-.78v-2.53c0-.7-.27-1.28-1.01-1.28-.51,0-.93,.35-1.05,.78-.04,.12-.04,.23-.04,.39v2.65h-.78V.35h-.04Z"/><path class="d" d="M105.46,2.37l.58,2.22c.12,.51,.23,.93,.31,1.4h.04c.12-.43,.23-.9,.39-1.36l.7-2.22h.66l.66,2.18c.16,.51,.27,.97,.39,1.44h.04c.08-.43,.19-.9,.35-1.4l.62-2.18h.78l-1.4,4.36h-.74l-.66-2.1c-.16-.51-.27-.93-.39-1.44h0c-.12,.51-.23,.97-.39,1.44l-.7,2.06h-.74l-1.32-4.36h.82v-.04Z"/><path class="d" d="M114.17,6.77l-.08-.54h-.04c-.23,.35-.7,.66-1.32,.66-.9,0-1.32-.62-1.32-1.25,0-1.05,.93-1.63,2.61-1.63v-.08c0-.35-.12-1.01-.97-1.01-.39,0-.82,.12-1.13,.31l-.19-.51c.35-.23,.9-.39,1.44-.39,1.32,0,1.67,.9,1.67,1.79v1.63c0,.39,0,.74,.08,1.05h-.74v-.04Zm-.12-2.26c-.86,0-1.87,.12-1.87,.97,0,.51,.35,.74,.74,.74,.58,0,.93-.35,1.05-.74,.04-.08,.04-.16,.04-.23v-.74h.04Z"/><path class="d" d="M116.08,3.74c0-.51,0-.97-.04-1.36h.7l.04,.86h.04c.19-.58,.66-.97,1.21-.97,.08,0,.16,0,.23,.04v.78c-.08,0-.16-.04-.27-.04-.54,0-.97,.43-1.05,1.01,0,.12-.04,.23-.04,.39v2.33h-.78V3.74h-.04Z"/><path class="d" d="M118.61,6.3l1.98-2.57c.19-.23,.35-.43,.58-.66h-2.37v-.62h3.35v.51l-1.95,2.53c-.19,.23-.35,.47-.54,.7h2.57v.62h-3.54v-.51h-.08Z"/><path class="d" d="M123.51,2.37l.58,2.22c.12,.51,.23,.93,.31,1.4h.04c.12-.43,.23-.9,.39-1.36l.7-2.22h.66l.66,2.18c.16,.51,.27,.97,.39,1.44h.04c.08-.43,.19-.9,.35-1.4l.62-2.18h.78l-1.4,4.32h-.74l-.66-2.1c-.16-.51-.27-.93-.39-1.44h0c-.12,.51-.23,.97-.39,1.44l-.7,2.06h-.74l-1.32-4.36h.82Z"/><path class="d" d="M132.23,6.77l-.08-.54h-.04c-.23,.35-.7,.66-1.32,.66-.9,0-1.32-.62-1.32-1.25,0-1.05,.93-1.63,2.61-1.63v-.08c0-.35-.12-1.01-.97-1.01-.39,0-.82,.12-1.13,.31l-.19-.51c.35-.23,.9-.39,1.44-.39,1.32,0,1.67,.9,1.67,1.79v1.63c0,.39,0,.74,.08,1.05h-.74v-.04Zm-.12-2.26c-.86,0-1.87,.12-1.87,.97,0,.51,.35,.74,.74,.74,.58,0,.93-.35,1.05-.74,.04-.08,.04-.16,.04-.23v-.74h.04Z"/><path class="d" d="M134.14,.35h.78V6.77h-.78V.35Z"/><path class="d" d="M140.05,.35V5.64c0,.39,0,.82,.04,1.13h-.7l-.04-.74h0c-.23,.51-.78,.86-1.48,.86-1.05,0-1.87-.9-1.87-2.22,0-1.44,.9-2.33,1.95-2.33,.66,0,1.13,.31,1.32,.66h0V.35h.78Zm-.78,3.81c0-.12,0-.23-.04-.35-.12-.51-.54-.93-1.13-.93-.82,0-1.32,.74-1.32,1.67s.43,1.6,1.28,1.6c.54,0,1.01-.35,1.17-.93,.04-.12,.04-.23,.04-.35v-.7Z"/></g><g><path class="b" d="M.93,28.76c1.25,.62,3.11,1.25,5.06,1.25,2.1,0,3.19-.86,3.19-2.18,0-1.25-.97-1.98-3.39-2.84C2.45,23.82,.23,21.95,.23,19.03c0-3.46,2.88-6.07,7.63-6.07,2.3,0,3.97,.47,5.18,1.01l-.97,3.66c-.82-.39-2.26-.97-4.24-.97s-2.92,.9-2.92,1.95c0,1.28,1.13,1.87,3.74,2.84,3.58,1.32,5.25,3.19,5.25,6.03,0,3.39-2.61,6.27-8.17,6.27-2.3,0-4.59-.58-5.72-1.25l.93-3.74Z"/><path class="b" d="M20.55,27.59c.16,1.91,2.02,2.8,4.12,2.8,1.56,0,2.8-.19,4.05-.58l.58,3.07c-1.52,.58-3.35,.9-5.29,.9-4.98,0-7.82-2.88-7.82-7.47,0-3.74,2.3-7.82,7.39-7.82,4.75,0,6.54,3.7,6.54,7.32,0,.78-.08,1.48-.16,1.79h-9.42Zm5.37-3.11c0-1.13-.47-2.96-2.57-2.96-1.91,0-2.69,1.75-2.8,2.96h5.37Z"/><path class="b" d="M32.84,12.18h4.55v21.29h-4.55V12.18Z"/><path class="b" d="M40.98,33.47c.08-.97,.12-2.72,.12-4.36V12.18h4.55v8.37h.08c.86-1.25,2.41-2.06,4.44-2.06,3.5,0,6.07,2.92,6.07,7.39,0,5.29-3.35,7.9-6.73,7.9-1.71,0-3.35-.62-4.4-2.37h-.08l-.19,2.02h-3.85v.04Zm4.67-6.23c0,.31,.04,.58,.08,.82,.31,1.25,1.36,2.14,2.69,2.14,1.95,0,3.15-1.52,3.15-4.12,0-2.3-1.01-4.09-3.15-4.09-1.25,0-2.37,.93-2.69,2.26-.08,.27-.08,.54-.08,.86v2.14Z"/><path class="b" d="M58.99,29.46c.86,.51,2.57,1.13,3.93,1.13s1.95-.47,1.95-1.25-.47-1.13-2.14-1.67c-3.04-1.01-4.2-2.69-4.16-4.4,0-2.72,2.33-4.79,5.95-4.79,1.71,0,3.23,.39,4.12,.86l-.82,3.15c-.66-.35-1.91-.86-3.19-.86-1.13,0-1.75,.47-1.75,1.21,0,.7,.58,1.05,2.37,1.67,2.8,.97,3.97,2.37,3.97,4.51,0,2.72-2.14,4.75-6.34,4.75-1.91,0-3.62-.43-4.75-1.01l.86-3.31Z"/><path class="b" d="M77.13,14.59v4.2h3.27v3.35h-3.27v5.29c0,1.75,.43,2.57,1.79,2.57,.58,0,1.01-.08,1.36-.12l.04,3.46c-.58,.23-1.67,.39-2.96,.39-1.48,0-2.69-.51-3.42-1.25-.86-.86-1.25-2.3-1.25-4.36v-5.99h-1.95v-3.35h1.95v-3.19l4.44-1.01Z"/><path class="b" d="M83.04,12.18h4.55v8.37h.08c.47-.62,1.09-1.13,1.79-1.52,.66-.35,1.52-.58,2.37-.58,2.92,0,5.14,2.02,5.14,6.42v8.56h-4.55v-8.06c0-1.91-.66-3.23-2.37-3.23-1.21,0-1.95,.78-2.3,1.6-.12,.31-.16,.7-.16,1.01v8.68h-4.55V12.18h0Z"/><path class="c" d="M105.3,14.71c0,1.25-.97,2.3-2.45,2.3s-2.41-1.01-2.37-2.3c-.04-1.32,.93-2.3,2.41-2.3s2.41,1.01,2.41,2.3Zm-4.71,18.76v-14.67h4.55v14.67h-4.55Z"/><path class="b" d="M108.8,12.18h4.55v21.29h-4.55V12.18Z"/><path class="b" d="M117.56,33.47v-11.29h-1.91v-3.35h1.91v-.58c0-1.75,.54-3.74,1.87-4.9,1.13-1.09,2.72-1.48,4.05-1.48,1.01,0,1.79,.12,2.41,.31l-.19,3.5c-.39-.12-.86-.19-1.48-.19-1.52,0-2.14,1.17-2.14,2.61v.74h2.92v3.35h-2.92v11.29h-4.51Z"/><path class="b" d="M130.48,27.59c.16,1.91,2.02,2.8,4.12,2.8,1.56,0,2.8-.19,4.05-.58l.58,3.07c-1.52,.58-3.35,.9-5.29,.9-4.98,0-7.82-2.88-7.82-7.47,0-3.74,2.3-7.82,7.39-7.82,4.75,0,6.54,3.7,6.54,7.32,0,.78-.08,1.48-.16,1.79h-9.42Zm5.37-3.11c0-1.13-.47-2.96-2.57-2.96-1.91,0-2.69,1.75-2.8,2.96h5.37Z"/></g><g><path class="b" d="M99.89,40.74c.82-.16,2.45-.27,4.01-.27,1.87,0,3.04,.19,4.05,.78,.93,.51,1.63,1.44,1.63,2.69s-.7,2.33-2.26,2.92v.04c1.56,.43,2.72,1.6,2.72,3.35,0,1.25-.58,2.22-1.4,2.88-.97,.78-2.65,1.25-5.37,1.25-1.52,0-2.65-.12-3.35-.19v-13.43h-.04Zm3.04,5.21h1.01c1.63,0,2.49-.66,2.49-1.67s-.78-1.6-2.18-1.6c-.66,0-1.05,.04-1.32,.08v3.19Zm0,6.03c.31,.04,.66,.04,1.21,.04,1.4,0,2.65-.54,2.65-1.95s-1.25-1.91-2.76-1.91h-1.05v3.81h-.04Z"/><path class="b" d="M120.98,51.02c0,1.28,.04,2.33,.08,3.19h-2.69l-.16-1.4h-.08c-.39,.62-1.32,1.63-3.11,1.63-2.02,0-3.46-1.25-3.46-4.32v-5.8h3.11v5.33c0,1.44,.47,2.3,1.56,2.3,.86,0,1.32-.58,1.56-1.09,.08-.19,.12-.43,.12-.66v-5.88h3.11v6.69h-.04Zm-8.13-9.53c0-.82,.66-1.44,1.44-1.44s1.36,.62,1.36,1.44-.58,1.4-1.36,1.4c-.82,.04-1.44-.62-1.44-1.4Zm4.24,0c0-.82,.62-1.44,1.44-1.44s1.4,.62,1.4,1.44-.58,1.4-1.4,1.4c-.82,.04-1.44-.62-1.44-1.4Z"/><path class="b" d="M123.12,47.55c0-1.44-.04-2.41-.08-3.27h2.65l.12,1.83h.08c.51-1.44,1.71-2.06,2.69-2.06,.27,0,.43,0,.66,.04v2.88c-.23-.04-.47-.08-.82-.08-1.13,0-1.91,.62-2.1,1.56-.04,.19-.08,.43-.08,.7v5.02h-3.07v-6.62h-.04Z"/><path class="b" d="M140.09,49.11c0,3.62-2.57,5.29-5.21,5.29-2.88,0-5.14-1.91-5.14-5.1s2.1-5.25,5.29-5.25,5.06,2.1,5.06,5.06Zm-7.16,.12c0,1.71,.7,2.96,2.02,2.96,1.21,0,1.95-1.21,1.95-2.96,0-1.48-.58-2.96-1.95-2.96-1.48,0-2.02,1.52-2.02,2.96Z"/></g></svg>